<svg id="Capa_1" enable-background="new 0 0 512 512" height="80" viewBox="0 0 512 512" width="80" xmlns="http://www.w3.org/2000/svg"><g><path d="m42.751 286.044h426.486v83.513h-426.486z" fill="#4073c8"/><path d="m505.299 282.72v86.837h-65.103c.05-.961.07-1.933.07-2.915 0-34.805-28.225-63.03-63.03-63.03-34.815 0-63.04 28.225-63.04 63.03 0 .982.02 1.953.07 2.915h-124.436c.05-.961.07-1.933.07-2.915 0-34.805-28.225-63.03-63.04-63.03s-63.03 28.225-63.03 63.03c0 .982.02 1.953.07 2.915h-56.388v-141.884l31.6-106.549c4.988-16.816 20.442-28.344 37.98-28.344h236.604c17.047 0 32.181 10.907 37.579 27.073l35.977 107.821 90.683 20.723c16.006 3.654 27.364 17.897 27.364 34.323z" fill="#61a2f9"/><path d="m100.119 92.78c-17.538 0-32.992 11.528-37.98 28.345l-31.6 106.549v141.884h-23.027v-141.885l31.6-106.549c4.988-16.816 20.442-28.344 37.98-28.344z" fill="#4073c8"/><g fill="#e4f6ff"><path d="m97.484 227.673h-25.2c-14.603 0-25.32-13.732-21.774-27.904l15.735-62.919c2.504-9.986 11.478-16.997 21.784-16.997h9.455z"/><path d="m148.754 227.673h72.367c12.313 0 22.294-9.981 22.294-22.294v-63.232c0-12.313-9.981-22.294-22.294-22.294h-72.367c-12.313 0-22.294 9.981-22.294 22.294v63.232c0 12.313 9.981 22.294 22.294 22.294z"/><path d="m351.275 119.852h-56.591c-12.313 0-22.294 9.981-22.294 22.294v63.232c0 12.313 9.981 22.294 22.294 22.294h92.568"/><path d="m464.689 314.074c-8.554 0-15.488-6.934-15.488-15.488v-15.987c0-8.554 6.934-15.488 15.488-15.488 8.554 0 15.488 6.934 15.488 15.488v15.987c-.001 8.553-6.935 15.488-15.488 15.488z"/></g><path d="m312.358 268.158h-26.979c-4.149 0-7.512-3.363-7.512-7.512s3.363-7.512 7.512-7.512h26.979c4.149 0 7.512 3.363 7.512 7.512s-3.363 7.512-7.512 7.512z" fill="#f9f6f9"/><path d="m161.431 268.158h-26.979c-4.149 0-7.512-3.363-7.512-7.512s3.363-7.512 7.512-7.512h26.979c4.149 0 7.512 3.363 7.512 7.512s-3.363 7.512-7.512 7.512z" fill="#f9f6f9"/><g><circle cx="126.863" cy="366.647" fill="#818181" r="52.573"/><path d="m135.056 418.589c-2.674.411-5.409.631-8.193.631-29.036 0-52.573-23.537-52.573-52.573s23.537-52.573 52.573-52.573c2.784 0 5.519.22 8.193.631-25.15 3.936-44.39 25.691-44.39 51.942s19.24 48.006 44.39 51.942z" fill="#454545"/><circle cx="126.863" cy="366.647" fill="#f9f6f9" r="21.918"/><path d="m132.89 387.73c-1.913.551-3.936.841-6.03.841-12.099 0-21.915-9.815-21.915-21.925 0-12.099 9.816-21.915 21.915-21.915 2.093 0 4.117.29 6.03.841-9.174 2.614-15.895 11.068-15.895 21.073 0 10.018 6.72 18.471 15.895 21.085z" fill="#dfeaef"/></g><path d="m504.488 341.433h-56.615c-4.149 0-7.512-3.363-7.512-7.512s3.363-7.512 7.512-7.512h56.615c4.149 0 7.512 3.363 7.512 7.512s-3.363 7.512-7.512 7.512z" fill="#f9f6f9"/><path d="m49.828 341.433h-42.316c-4.149 0-7.512-3.363-7.512-7.512s3.363-7.512 7.512-7.512h42.316c4.149 0 7.512 3.363 7.512 7.512s-3.363 7.512-7.512 7.512z" fill="#f9f6f9"/><path d="m300.773 341.433h-97.45c-4.149 0-7.512-3.363-7.512-7.512s3.363-7.512 7.512-7.512h97.45c4.149 0 7.512 3.363 7.512 7.512s-3.362 7.512-7.512 7.512z" fill="#4073c8"/><g><circle cx="377.233" cy="366.647" fill="#818181" r="52.573"/><path d="m385.426 418.589c-2.674.411-5.409.631-8.193.631-29.036 0-52.573-23.537-52.573-52.573s23.537-52.573 52.573-52.573c2.784 0 5.519.22 8.193.631-25.15 3.936-44.39 25.691-44.39 51.942s19.24 48.006 44.39 51.942z" fill="#454545"/><circle cx="377.233" cy="366.647" fill="#f9f6f9" r="21.918"/><path d="m383.259 387.73c-1.913.551-3.936.841-6.03.841-12.099 0-21.915-9.815-21.915-21.925 0-12.099 9.816-21.915 21.915-21.915 2.093 0 4.117.29 6.03.841-9.174 2.614-15.895 11.068-15.895 21.073 0 10.018 6.721 18.471 15.895 21.085z" fill="#dfeaef"/></g></g></svg>